<svg xmlns="http://www.w3.org/2000/svg" viewBox="0 0 512 512"><path d="M490.667 53.333H448C448 41.551 438.449 32 426.667 32H384c-11.782 0-21.333 9.551-21.333 21.333H149.333C149.333 41.551 139.782 32 128 32H85.333C73.551 32 64 41.551 64 53.333H21.333C9.551 53.333 0 62.885 0 74.667v45.611c0 4.616 1.497 9.107 4.267 12.8l9.024 12.032a12.527 12.527 0 0 1 .004 15.057l-9.028 12.037A21.324 21.324 0 0 0 0 185.003V224c0 11.782 9.551 21.333 21.333 21.333H64c7.109 0 11.734 7.491 8.549 13.854L7.326 374c-12.391 27.643-8.307 57.783 10.205 79.858C31.793 470.866 53.654 480 76.629 480h103.808c46.59 0 71.416-54.969 40.596-89.909l-2.438-2.752 20.865-56.672h44.358c43.292 0 78.848-39.327 78.848-83.264v-2.069h106.667c11.782 0 21.333-9.551 21.333-21.333v-42.667c11.782 0 21.333-9.551 21.333-21.333V74.667c.001-11.782-9.55-21.334-21.332-21.334zM298.667 96v21.333h-64V96h64zm-118.23 341.333H76.629c-10.933 0-20.691-4.077-26.405-10.891-7.987-9.523-9.717-22.293-4.851-33.249l64.804-113.924c5.656-11.28 7.007-23.075 4.985-33.936H225.41l-20.853 56.628c-.022.059-.038.118-.059.177l-28.102 76.326a21.335 21.335 0 0 0-1.177 4.957 38.975 38.975 0 0 0 6.966 26.976l1.419 1.786 5.461 6.165c6.485 7.351 1.23 18.985-8.628 18.985zM320 247.403C320 268.681 302.534 288 283.819 288H255.17l15.709-42.667H320v2.07zm149.333-108.736C457.551 138.667 448 148.218 448 160v42.667H42.667v-10.553l4.757-6.343c14.735-19.636 14.735-46.626-.004-66.266l-4.754-6.338V96H192v42.667c0 11.782 9.551 21.333 21.333 21.333H320c11.782 0 21.333-9.551 21.333-21.333V96h128v42.667zM149.333 288C137.557 288 128 297.557 128 309.333c0 11.776 9.557 21.333 21.333 21.333 11.776 0 21.333-9.557 21.333-21.333 0-11.776-9.557-21.333-21.333-21.333zM128 352c-11.776 0-21.333 9.557-21.333 21.333 0 11.776 9.557 21.333 21.333 21.333 11.776 0 21.333-9.557 21.333-21.333 0-11.776-9.557-21.333-21.333-21.333z"/></svg>