<svg xmlns="http://www.w3.org/2000/svg" viewBox="0 0 512 512"><path d="M59 0C26.467 0 0 26.467 0 59s26.467 59 59 59c11.046 0 20-8.954 20-20s-8.954-20-20-20c-10.477 0-19-8.523-19-19s8.523-19 19-19 19 8.523 19 19c0 11.046 8.954 20 20 20s20-8.954 20-20c0-32.533-26.467-59-59-59zm433 433H182c-11.046 0-20 8.954-20 20s8.954 20 20 20h310c11.046 0 20-8.954 20-20s-8.954-20-20-20zm0-197H182c-11.046 0-20 8.954-20 20s8.954 20 20 20h310c11.046 0 20-8.954 20-20s-8.954-20-20-20zM59 197c-32.533 0-59 26.467-59 59s26.467 59 59 59c11.046 0 20-8.954 20-20s-8.954-20-20-20c-10.477 0-19-8.523-19-19s8.523-19 19-19 19 8.523 19 19c0 11.046 8.954 20 20 20s20-8.954 20-20c0-32.533-26.467-59-59-59zM182 79h310c11.046 0 20-8.954 20-20s-8.954-20-20-20H182c-11.046 0-20 8.954-20 20s8.954 20 20 20zM59 394c-32.533 0-59 26.467-59 59s26.467 59 59 59c11.046 0 20-8.954 20-20s-8.954-20-20-20c-10.477 0-19-8.523-19-19s8.523-19 19-19 19 8.523 19 19c0 11.046 8.954 20 20 20s20-8.954 20-20c0-32.533-26.467-59-59-59z"/></svg>