<svg xmlns="http://www.w3.org/2000/svg" viewBox="0 0 330 330"><path d="M315 270h-15v-45c0-4.721-2.223-9.167-6-12l-40-30a15 15 0 0 0-18 0l-31 23.25L174 183a15 15 0 0 0-18 0l-31 23.25L94 183a15 15 0 0 0-18 0l-40 30a15.001 15.001 0 0 0-6 12v45H15c-8.284 0-15 6.716-15 15 0 8.284 6.716 15 15 15h300c8.284 0 15-6.716 15-15 0-8.284-6.716-15-15-15zM60 232.5l25-18.75 25 18.75V270H60v-37.5zm80 0l25-18.75 25 18.75V270h-50v-37.5zm80 37.5v-37.5l25-18.75 25 18.75V270h-50zM15 149.999h300c8.284 0 15-6.716 15-15 0-8.284-6.716-15-15-15h-15v-45c0-4.721-2.223-9.167-6-12l-40-30a15 15 0 0 0-18 0l-31 23.25L174 33a15 15 0 0 0-18 0l-31 23.25L94 33a15 15 0 0 0-18 0L36 63a15.001 15.001 0 0 0-6 12v45H15c-8.284 0-15 6.716-15 15 0 8.284 6.716 14.999 15 14.999zM245 63.75l25 18.749v37.5h-50v-37.5l25-18.749zm-80 0l25 18.749v37.5h-50v-37.5l25-18.749zM60 82.499L85 63.75l25 18.749v37.5H60v-37.5z"/></svg>