<svg xmlns="http://www.w3.org/2000/svg" viewBox="0 0 512 512"><path d="M509.996 62.254c-4.074-9.843-13.565-16.188-24.201-16.188H26.206c-10.636 0-20.127 6.345-24.201 16.188a26.182 26.182 0 0 0 5.679 28.582l181.865 182.162v227.924A11.063 11.063 0 0 0 200.626 512c6.13 0 11.078-4.948 11.078-11.078v-232.52c0-2.948-1.172-5.769-3.245-7.842L23.349 75.143c-1.659-1.667-1.262-3.47-.883-4.39.396-.945 1.379-2.487 3.74-2.487h459.598c2.343 0 3.335 1.56 3.731 2.488.379.928.776 2.731-.892 4.39L303.56 260.56a11.092 11.092 0 0 0-3.245 7.842v165.956a11.063 11.063 0 0 0 11.078 11.077 11.063 11.063 0 0 0 11.077-11.077V272.989L504.335 90.827a26.207 26.207 0 0 0 5.661-28.573z"/></svg>