<svg xmlns="http://www.w3.org/2000/svg" viewBox="0 0 512 512"><path d="M219.411 173.124c111.033 0 158.363 19.521 158.363 19.521 0-35.457 78.325-95.117 53.843-95.117C295.286 97.528 266.88 0 218.375 0 169.851 0 158.457 97.528 6.15 97.528c-24.7 0 32.988 59.002 32.988 95.117 0 0 69.241-19.521 180.274-19.521zm-40.835-96.77h79.679v39.839c0 19.92-39.84 39.84-39.84 39.84s-39.84-19.92-39.84-39.84v-39.84zm-.757 248.997a29.123 29.123 0 0 1-29.123 29.123 29.123 29.123 0 0 1-29.123-29.123 29.123 29.123 0 0 1 29.123-29.123 29.123 29.123 0 0 1 29.123 29.123zm139.458 0a29.143 29.143 0 0 1-29.142 29.143 29.143 29.143 0 0 1-29.143-29.143 29.143 29.143 0 0 1 29.143-29.143 29.143 29.143 0 0 1 29.142 29.143zm63.047-60.018v-4.522c0-4.363-1.753-8.227-4.343-11.354-.916-5.16-1.514-10.578-2.749-15.458-.279-1.116-.976-1.992-1.454-2.988 3.227-3.745 5.14-6.912 5.14-8.964 0 0-50.219-24.004-158.503-24.004-108.284 0-158.542 24.004-158.542 24.004 0 2.032 1.873 5.14 5.02 8.824-.22.578-.637 1.016-.797 1.614-1.394 5.259-2.071 11.135-3.087 16.752-2.69 3.148-4.482 7.092-4.482 11.554v4.223c-20.996 9.283-35.318 34.023-35.318 64.839 0 33.565 32.13 62.35 57.03 71.512C101.565 478.913 186.524 512 218.415 512c31.792 0 116.392-32.888 139.977-109.977 27.689-8.785 57.23-40.199 57.23-72.19 0-29.6-14.761-54.82-35.298-64.5zM343.91 368.597c-8.466 0-15.776 5.936-17.55 14.223-13.804 65.237-86.69 93.324-107.945 93.324-21.254 0-94.14-28.087-107.945-93.384-1.634-7.729-9.502-13.525-17.37-14.203-8.068-.717-36.035-20.378-36.035-38.704 0-8.346 1.713-15.438 4.282-20.956 3.287 3.586 7.908 5.897 13.147 5.897 9.94 0 17.988-8.048 17.988-17.988v-15.219c.08-.558.378-1.036.418-1.613.498-8.546 1.594-16.574 2.968-24.342 29.561 18.465 74.281 37.05 122.567 37.05 48.306 0 93.026-18.605 122.587-37.09 1.374 7.788 2.47 15.836 2.948 24.342.04.558.319.996.398 1.534v15.318c0 9.94 8.048 17.988 17.988 17.988 5.08 0 9.621-2.132 12.888-5.518 2.65 5.458 4.542 12.39 4.542 20.577-.02 18.087-25.478 38.764-35.876 38.764z"/></svg>